<svg width="364" height="361" viewBox="0 0 364 361" fill="none" xmlns="http://www.w3.org/2000/svg">
<g filter="url(#filter0_d)">
<path d="M234.32 66.5441C253.759 84.5556 275.222 92.4483 296.482 107.424C317.945 122.602 339.409 144.864 344.673 170.363C349.938 195.863 339.206 224.398 318.35 240.588C297.697 256.576 266.717 260.421 242.015 277.623C217.312 294.825 198.683 325.384 179.65 325.991C160.819 326.598 141.584 297.051 114.046 281.468C86.5084 265.683 50.8715 264.064 33.0531 247.469C15.0322 230.671 14.8297 199.101 15.0322 167.53C15.4371 135.959 16.2471 104.591 29.2059 79.2938C42.1648 53.9968 67.2726 34.771 94.4052 21.0094C121.538 7.45016 150.898 -0.644896 174.183 9.67631C197.469 19.7951 214.882 48.3302 234.32 66.5441Z" fill="#4C956C"/>
</g>
<defs>
<filter id="filter0_d" x="0" y="0" width="371" height="361" filterUnits="userSpaceOnUse" color-interpolation-filters="sRGB">
<feFlood flood-opacity="0" result="BackgroundImageFix"/>
<feColorMatrix in="SourceAlpha" type="matrix" values="0 0 0 0 0 0 0 0 0 0 0 0 0 0 0 0 0 0 127 0"/>
<feOffset dx="5" dy="15"/>
<feGaussianBlur stdDeviation="10"/>
<feColorMatrix type="matrix" values="0 0 0 0 0 0 0 0 0 0 0 0 0 0 0 0 0 0 0.1 0"/>
<feBlend mode="normal" in2="BackgroundImageFix" result="effect1_dropShadow"/>
<feBlend mode="normal" in="SourceGraphic" in2="effect1_dropShadow" result="shape"/>
</filter>
</defs>
</svg>
