<svg width="186" height="149" viewBox="0 0 186 149" fill="none" xmlns="http://www.w3.org/2000/svg">
<g filter="url(#filter0_d)">
<rect x="27" y="6.52954" width="119.324" height="70.4704" rx="12" fill="white"/>
</g>
<path d="M44.4553 29.3937L43.3245 29.3937L43.3245 25.4503L39.0237 25.4503L39.0237 29.3937L37.8987 29.3937L37.8987 20.8624L39.0237 20.8624L39.0237 24.5304L43.3245 24.5304L43.3245 20.8624L44.4553 20.8624L44.4553 29.3937ZM48.9143 29.5109C48.0549 29.5109 47.3557 29.2296 46.8167 28.6671C46.2776 28.1007 46.0081 27.3448 46.0081 26.3995L46.0081 26.2003C46.0081 25.5714 46.1272 25.0109 46.3655 24.5187C46.6077 24.0226 46.9436 23.6359 47.3733 23.3585C47.8069 23.0773 48.2756 22.9366 48.7796 22.9366C49.6038 22.9366 50.2444 23.2081 50.7014 23.7511C51.1585 24.2941 51.387 25.0714 51.387 26.0831L51.387 26.5343L47.0921 26.5343C47.1077 27.1593 47.2893 27.6652 47.637 28.0519C47.9885 28.4347 48.4339 28.6261 48.9729 28.6261C49.3557 28.6261 49.6799 28.548 49.9456 28.3917C50.2112 28.2355 50.4436 28.0284 50.6428 27.7706L51.3049 28.2863C50.7737 29.1027 49.9768 29.5109 48.9143 29.5109ZM48.7796 23.8273C48.3421 23.8273 47.9749 23.9874 47.678 24.3077C47.3811 24.6241 47.1975 25.0695 47.1272 25.6437L50.303 25.6437L50.303 25.5616C50.2717 25.0109 50.1233 24.5851 49.8577 24.2843C49.5921 23.9796 49.2327 23.8273 48.7796 23.8273ZM53.8245 29.3937L52.7405 29.3937L52.7405 20.3937L53.8245 20.3937L53.8245 29.3937ZM56.7424 29.3937L55.6585 29.3937L55.6585 20.3937L56.7424 20.3937L56.7424 29.3937ZM58.1956 26.1652C58.1956 25.5441 58.3167 24.9855 58.5589 24.4894C58.8049 23.9933 59.1448 23.6105 59.5784 23.3409C60.0159 23.0714 60.5139 22.9366 61.0725 22.9366C61.9358 22.9366 62.6331 23.2355 63.1643 23.8331C63.6995 24.4308 63.9671 25.2257 63.9671 26.2179L63.9671 26.2941C63.9671 26.9113 63.8479 27.4659 63.6096 27.9581C63.3753 28.4464 63.0374 28.8273 62.596 29.1007C62.1585 29.3741 61.6546 29.5109 61.0842 29.5109C60.2249 29.5109 59.5276 29.212 58.9924 28.6144C58.4612 28.0167 58.1956 27.2257 58.1956 26.2413L58.1956 26.1652ZM59.2854 26.2941C59.2854 26.9972 59.4475 27.5616 59.7717 27.9874C60.0999 28.4132 60.5374 28.6261 61.0842 28.6261C61.635 28.6261 62.0725 28.4113 62.3967 27.9816C62.721 27.548 62.8831 26.9425 62.8831 26.1652C62.8831 25.4698 62.7171 24.9073 62.385 24.4777C62.0569 24.0441 61.6194 23.8273 61.0725 23.8273C60.5374 23.8273 60.1057 24.0402 59.7776 24.4659C59.4495 24.8917 59.2854 25.5011 59.2854 26.2941ZM65.2913 31.0929L64.676 30.671C65.0432 30.1593 65.2346 29.632 65.2503 29.089L65.2503 28.1105L66.3108 28.1105L66.3108 28.9601C66.3108 29.3546 66.2131 29.7491 66.0178 30.1437C65.8264 30.5382 65.5842 30.8546 65.2913 31.0929ZM76.2717 27.8995L77.4905 23.0538L78.5745 23.0538L76.7288 29.3937L75.8499 29.3937L74.3089 24.589L72.8089 29.3937L71.9299 29.3937L70.0901 23.0538L71.1682 23.0538L72.4163 27.7999L73.8928 23.0538L74.7659 23.0538L76.2717 27.8995ZM80.7659 23.8214C81.2464 23.2316 81.8714 22.9366 82.6409 22.9366C83.9807 22.9366 84.6565 23.6925 84.6682 25.2042L84.6682 29.3937L83.5842 29.3937L83.5842 25.1984C83.5803 24.7413 83.4749 24.4034 83.2678 24.1847C83.0647 23.9659 82.7464 23.8566 82.3128 23.8566C81.9612 23.8566 81.6526 23.9503 81.387 24.1378C81.1214 24.3253 80.9143 24.5714 80.7659 24.8761L80.7659 29.3937L79.6819 29.3937L79.6819 20.3937L80.7659 20.3937L80.7659 23.8214ZM90.2053 29.3937C90.1428 29.2687 90.0921 29.046 90.053 28.7257C89.5491 29.2491 88.9475 29.5109 88.2483 29.5109C87.6233 29.5109 87.1096 29.3351 86.7073 28.9835C86.3089 28.6281 86.1096 28.1788 86.1096 27.6359C86.1096 26.9757 86.3596 26.464 86.8596 26.1007C87.3635 25.7335 88.0706 25.5499 88.9807 25.5499L90.0354 25.5499L90.0354 25.0519C90.0354 24.673 89.9221 24.3722 89.6956 24.1495C89.469 23.923 89.135 23.8097 88.6936 23.8097C88.3069 23.8097 87.9827 23.9073 87.721 24.1027C87.4592 24.298 87.3284 24.5343 87.3284 24.8116L86.2385 24.8116C86.2385 24.4952 86.3499 24.1906 86.5725 23.8976C86.7991 23.6007 87.1038 23.3663 87.4866 23.1945C87.8733 23.0226 88.2971 22.9366 88.7581 22.9366C89.4885 22.9366 90.0608 23.1202 90.4749 23.4874C90.8889 23.8507 91.1038 24.3527 91.1194 24.9933L91.1194 27.9113C91.1194 28.4933 91.1936 28.9562 91.3421 29.2999L91.3421 29.3937L90.2053 29.3937ZM88.4065 28.5675C88.7464 28.5675 89.0686 28.4796 89.3733 28.3038C89.678 28.1281 89.8987 27.8995 90.0354 27.6183L90.0354 26.3175L89.1858 26.3175C87.8577 26.3175 87.1936 26.7062 87.1936 27.4835C87.1936 27.8234 87.3069 28.089 87.5335 28.2804C87.76 28.4718 88.051 28.5675 88.4065 28.5675ZM94.2893 21.5187L94.2893 23.0538L95.4729 23.0538L95.4729 23.8917L94.2893 23.8917L94.2893 27.8234C94.2893 28.0773 94.3421 28.2687 94.4475 28.3976C94.553 28.5226 94.7327 28.5851 94.9866 28.5851C95.1116 28.5851 95.2835 28.5616 95.5022 28.5148L95.5022 29.3937C95.2171 29.4718 94.9397 29.5109 94.6702 29.5109C94.1858 29.5109 93.8206 29.3644 93.5745 29.0714C93.3284 28.7784 93.2053 28.3624 93.2053 27.8234L93.2053 23.8917L92.051 23.8917L92.051 23.0538L93.2053 23.0538L93.2053 21.5187L94.2893 21.5187ZM105.334 27.8995L106.553 23.0538L107.637 23.0538L105.791 29.3937L104.912 29.3937L103.371 24.589L101.871 29.3937L100.992 29.3937L99.1526 23.0538L100.231 23.0538L101.479 27.7999L102.955 23.0538L103.828 23.0538L105.334 27.8995ZM108.457 26.1652C108.457 25.5441 108.578 24.9855 108.821 24.4894C109.067 23.9933 109.407 23.6105 109.84 23.3409C110.278 23.0714 110.776 22.9366 111.334 22.9366C112.198 22.9366 112.895 23.2355 113.426 23.8331C113.961 24.4308 114.229 25.2257 114.229 26.2179L114.229 26.2941C114.229 26.9113 114.11 27.4659 113.871 27.9581C113.637 28.4464 113.299 28.8273 112.858 29.1007C112.42 29.3741 111.916 29.5109 111.346 29.5109C110.487 29.5109 109.789 29.212 109.254 28.6144C108.723 28.0167 108.457 27.2257 108.457 26.2413L108.457 26.1652ZM109.547 26.2941C109.547 26.9972 109.709 27.5616 110.033 27.9874C110.362 28.4132 110.799 28.6261 111.346 28.6261C111.897 28.6261 112.334 28.4113 112.658 27.9816C112.983 27.548 113.145 26.9425 113.145 26.1652C113.145 25.4698 112.979 24.9073 112.647 24.4777C112.319 24.0441 111.881 23.8273 111.334 23.8273C110.799 23.8273 110.367 24.0402 110.039 24.4659C109.711 24.8917 109.547 25.5011 109.547 26.2941ZM119.502 28.7667C119.08 29.2628 118.461 29.5109 117.645 29.5109C116.969 29.5109 116.453 29.3156 116.098 28.9249C115.746 28.5304 115.569 27.9484 115.565 27.1788L115.565 23.0538L116.649 23.0538L116.649 27.1495C116.649 28.1105 117.039 28.5909 117.821 28.5909C118.649 28.5909 119.199 28.2823 119.473 27.6652L119.473 23.0538L120.557 23.0538L120.557 29.3937L119.526 29.3937L119.502 28.7667ZM123.387 29.3937L122.303 29.3937L122.303 20.3937L123.387 20.3937L123.387 29.3937ZM124.864 26.171C124.864 25.1984 125.094 24.4171 125.555 23.8273C126.016 23.2335 126.619 22.9366 127.365 22.9366C128.108 22.9366 128.696 23.1906 129.129 23.6984L129.129 20.3937L130.213 20.3937L130.213 29.3937L129.217 29.3937L129.164 28.714C128.731 29.2452 128.127 29.5109 127.354 29.5109C126.619 29.5109 126.02 29.2101 125.555 28.6085C125.094 28.007 124.864 27.2218 124.864 26.2531L124.864 26.171ZM125.948 26.2941C125.948 27.0128 126.096 27.5753 126.393 27.9816C126.69 28.3878 127.1 28.5909 127.623 28.5909C128.311 28.5909 128.813 28.2823 129.129 27.6652L129.129 24.7531C128.805 24.1554 128.307 23.8566 127.635 23.8566C127.104 23.8566 126.69 24.0616 126.393 24.4718C126.096 24.882 125.948 25.4894 125.948 26.2941ZM39.803 44.8058L41.2796 40.0538L42.4397 40.0538L39.8909 47.3722C39.4964 48.4269 38.8694 48.9542 38.01 48.9542L37.8049 48.9366L37.4006 48.8605L37.4006 47.9816L37.6936 48.005C38.0608 48.005 38.346 47.9308 38.5491 47.7823C38.7561 47.6339 38.926 47.3624 39.0589 46.9679L39.2991 46.3234L37.0374 40.0538L38.221 40.0538L39.803 44.8058ZM43.0315 43.1652C43.0315 42.5441 43.1526 41.9855 43.3948 41.4894C43.6409 40.9933 43.9807 40.6105 44.4143 40.3409C44.8518 40.0714 45.3499 39.9366 45.9085 39.9366C46.7717 39.9366 47.469 40.2355 48.0003 40.8331C48.5354 41.4308 48.803 42.2257 48.803 43.2179L48.803 43.2941C48.803 43.9113 48.6839 44.4659 48.4456 44.9581C48.2112 45.4464 47.8733 45.8273 47.4319 46.1007C46.9944 46.3741 46.4905 46.5109 45.9202 46.5109C45.0608 46.5109 44.3635 46.212 43.8284 45.6144C43.2971 45.0167 43.0315 44.2257 43.0315 43.2413L43.0315 43.1652ZM44.1214 43.2941C44.1214 43.9972 44.2835 44.5616 44.6077 44.9874C44.9358 45.4132 45.3733 45.6261 45.9202 45.6261C46.471 45.6261 46.9085 45.4113 47.2327 44.9816C47.5569 44.548 47.719 43.9425 47.719 43.1652C47.719 42.4698 47.553 41.9073 47.221 41.4777C46.8928 41.0441 46.4553 40.8273 45.9085 40.8273C45.3733 40.8273 44.9417 41.0402 44.6135 41.4659C44.2854 41.8917 44.1214 42.5011 44.1214 43.2941ZM54.0764 45.7667C53.6546 46.2628 53.0354 46.5109 52.219 46.5109C51.5432 46.5109 51.0276 46.3156 50.6721 45.9249C50.3206 45.5304 50.1428 44.9484 50.1389 44.1788L50.1389 40.0538L51.2229 40.0538L51.2229 44.1495C51.2229 45.1105 51.6135 45.5909 52.3948 45.5909C53.2229 45.5909 53.7737 45.2823 54.0471 44.6652L54.0471 40.0538L55.1311 40.0538L55.1311 46.3937L54.0999 46.3937L54.0764 45.7667ZM60.9378 46.3937L59.8538 46.3937L59.8538 37.3937L60.9378 37.3937L60.9378 46.3937ZM63.8557 46.3937L62.7717 46.3937L62.7717 40.0538L63.8557 40.0538L63.8557 46.3937ZM62.6839 38.3722C62.6839 38.1964 62.7366 38.048 62.8421 37.9269C62.9514 37.8058 63.1116 37.7452 63.3225 37.7452C63.5335 37.7452 63.6936 37.8058 63.803 37.9269C63.9124 38.048 63.9671 38.1964 63.9671 38.3722C63.9671 38.548 63.9124 38.6945 63.803 38.8116C63.6936 38.9288 63.5335 38.9874 63.3225 38.9874C63.1116 38.9874 62.9514 38.9288 62.8421 38.8116C62.7366 38.6945 62.6839 38.548 62.6839 38.3722ZM67.3655 43.4581L66.6858 44.1671L66.6858 46.3937L65.6018 46.3937L65.6018 37.3937L66.6858 37.3937L66.6858 42.837L67.2659 42.1398L69.2405 40.0538L70.5589 40.0538L68.0921 42.7023L70.846 46.3937L69.5745 46.3937L67.3655 43.4581ZM74.1917 46.5109C73.3323 46.5109 72.6331 46.2296 72.094 45.6671C71.5549 45.1007 71.2854 44.3448 71.2854 43.3995L71.2854 43.2003C71.2854 42.5714 71.4046 42.0109 71.6428 41.5187C71.885 41.0226 72.221 40.6359 72.6506 40.3585C73.0842 40.0773 73.553 39.9366 74.0569 39.9366C74.8811 39.9366 75.5217 40.2081 75.9788 40.7511C76.4358 41.2941 76.6643 42.0714 76.6643 43.0831L76.6643 43.5343L72.3694 43.5343C72.385 44.1593 72.5667 44.6652 72.9143 45.0519C73.2659 45.4347 73.7112 45.6261 74.2503 45.6261C74.6331 45.6261 74.9573 45.548 75.2229 45.3917C75.4885 45.2355 75.721 45.0284 75.9202 44.7706L76.5823 45.2863C76.051 46.1027 75.2542 46.5109 74.1917 46.5109ZM74.0569 40.8273C73.6194 40.8273 73.2522 40.9874 72.9553 41.3077C72.6585 41.6241 72.4749 42.0695 72.4046 42.6437L75.5803 42.6437L75.5803 42.5616C75.5491 42.0109 75.4006 41.5851 75.135 41.2843C74.8694 40.9796 74.51 40.8273 74.0569 40.8273ZM82.3714 38.5187L82.3714 40.0538L83.5549 40.0538L83.5549 40.8917L82.3714 40.8917L82.3714 44.8234C82.3714 45.0773 82.4241 45.2687 82.5296 45.3976C82.635 45.5226 82.8147 45.5851 83.0686 45.5851C83.1936 45.5851 83.3655 45.5616 83.5842 45.5148L83.5842 46.3937C83.2991 46.4718 83.0217 46.5109 82.7522 46.5109C82.2678 46.5109 81.9026 46.3644 81.6565 46.0714C81.4104 45.7784 81.2874 45.3624 81.2874 44.8234L81.2874 40.8917L80.1331 40.8917L80.1331 40.0538L81.2874 40.0538L81.2874 38.5187L82.3714 38.5187ZM84.4221 43.1652C84.4221 42.5441 84.5432 41.9855 84.7854 41.4894C85.0315 40.9933 85.3714 40.6105 85.8049 40.3409C86.2424 40.0714 86.7405 39.9366 87.2991 39.9366C88.1624 39.9366 88.8596 40.2355 89.3909 40.8331C89.926 41.4308 90.1936 42.2257 90.1936 43.2179L90.1936 43.2941C90.1936 43.9113 90.0745 44.4659 89.8362 44.9581C89.6018 45.4464 89.2639 45.8273 88.8225 46.1007C88.385 46.3741 87.8811 46.5109 87.3108 46.5109C86.4514 46.5109 85.7542 46.212 85.219 45.6144C84.6878 45.0167 84.4221 44.2257 84.4221 43.2413L84.4221 43.1652ZM85.512 43.2941C85.512 43.9972 85.6741 44.5616 85.9983 44.9874C86.3264 45.4132 86.7639 45.6261 87.3108 45.6261C87.8616 45.6261 88.2991 45.4113 88.6233 44.9816C88.9475 44.548 89.1096 43.9425 89.1096 43.1652C89.1096 42.4698 88.9436 41.9073 88.6116 41.4777C88.2835 41.0441 87.846 40.8273 87.2991 40.8273C86.7639 40.8273 86.3323 41.0402 86.0042 41.4659C85.676 41.8917 85.512 42.5011 85.512 43.2941ZM96.0003 38.5187L96.0003 40.0538L97.1839 40.0538L97.1839 40.8917L96.0003 40.8917L96.0003 44.8234C96.0003 45.0773 96.053 45.2687 96.1585 45.3976C96.2639 45.5226 96.4436 45.5851 96.6975 45.5851C96.8225 45.5851 96.9944 45.5616 97.2131 45.5148L97.2131 46.3937C96.928 46.4718 96.6506 46.5109 96.3811 46.5109C95.8967 46.5109 95.5315 46.3644 95.2854 46.0714C95.0393 45.7784 94.9163 45.3624 94.9163 44.8234L94.9163 40.8917L93.762 40.8917L93.762 40.0538L94.9163 40.0538L94.9163 38.5187L96.0003 38.5187ZM102.369 46.3937C102.307 46.2687 102.256 46.046 102.217 45.7257C101.713 46.2491 101.112 46.5109 100.412 46.5109C99.7874 46.5109 99.2737 46.3351 98.8714 45.9835C98.4729 45.6281 98.2737 45.1788 98.2737 44.6359C98.2737 43.9757 98.5237 43.464 99.0237 43.1007C99.5276 42.7335 100.235 42.5499 101.145 42.5499L102.199 42.5499L102.199 42.0519C102.199 41.673 102.086 41.3722 101.86 41.1495C101.633 40.923 101.299 40.8097 100.858 40.8097C100.471 40.8097 100.147 40.9073 99.885 41.1027C99.6233 41.298 99.4924 41.5343 99.4924 41.8116L98.4026 41.8116C98.4026 41.4952 98.5139 41.1906 98.7366 40.8976C98.9631 40.6007 99.2678 40.3663 99.6506 40.1945C100.037 40.0226 100.461 39.9366 100.922 39.9366C101.653 39.9366 102.225 40.1202 102.639 40.4874C103.053 40.8507 103.268 41.3527 103.283 41.9933L103.283 44.9113C103.283 45.4933 103.358 45.9562 103.506 46.2999L103.506 46.3937L102.369 46.3937ZM100.571 45.5675C100.91 45.5675 101.233 45.4796 101.537 45.3038C101.842 45.1281 102.063 44.8995 102.199 44.6183L102.199 43.3175L101.35 43.3175C100.022 43.3175 99.3577 43.7062 99.3577 44.4835C99.3577 44.8234 99.471 45.089 99.6975 45.2804C99.9241 45.4718 100.215 45.5675 100.571 45.5675ZM106.16 46.3937L105.076 46.3937L105.076 37.3937L106.16 37.3937L106.16 46.3937ZM109.67 43.4581L108.99 44.1671L108.99 46.3937L107.907 46.3937L107.907 37.3937L108.99 37.3937L108.99 42.837L109.571 42.1398L111.545 40.0538L112.864 40.0538L110.397 42.7023L113.151 46.3937L111.879 46.3937L109.67 43.4581ZM41.6428 63.3937C41.5803 63.2687 41.5296 63.046 41.4905 62.7257C40.9866 63.2491 40.385 63.5109 39.6858 63.5109C39.0608 63.5109 38.5471 63.3351 38.1448 62.9835C37.7464 62.6281 37.5471 62.1788 37.5471 61.6359C37.5471 60.9757 37.7971 60.464 38.2971 60.1007C38.801 59.7335 39.5081 59.5499 40.4182 59.5499L41.4729 59.5499L41.4729 59.0519C41.4729 58.673 41.3596 58.3722 41.1331 58.1495C40.9065 57.923 40.5725 57.8097 40.1311 57.8097C39.7444 57.8097 39.4202 57.9073 39.1585 58.1027C38.8967 58.298 38.7659 58.5343 38.7659 58.8116L37.676 58.8116C37.676 58.4952 37.7874 58.1906 38.01 57.8976C38.2366 57.6007 38.5413 57.3663 38.9241 57.1945C39.3108 57.0226 39.7346 56.9366 40.1956 56.9366C40.926 56.9366 41.4983 57.1202 41.9124 57.4874C42.3264 57.8507 42.5413 58.3527 42.5569 58.9933L42.5569 61.9113C42.5569 62.4933 42.6311 62.9562 42.7796 63.2999L42.7796 63.3937L41.6428 63.3937ZM39.844 62.5675C40.1839 62.5675 40.5061 62.4796 40.8108 62.3038C41.1155 62.1281 41.3362 61.8995 41.4729 61.6183L41.4729 60.3175L40.6233 60.3175C39.2952 60.3175 38.6311 60.7062 38.6311 61.4835C38.6311 61.8234 38.7444 62.089 38.971 62.2804C39.1975 62.4718 39.4885 62.5675 39.844 62.5675ZM49.6233 60.2941C49.6233 61.2628 49.4006 62.0421 48.9553 62.632C48.51 63.2179 47.9124 63.5109 47.1624 63.5109C46.3616 63.5109 45.7424 63.2277 45.3049 62.6613L45.2522 63.3937L44.2561 63.3937L44.2561 54.3937L45.3401 54.3937L45.3401 57.7511C45.7776 57.2081 46.3811 56.9366 47.1506 56.9366C47.9202 56.9366 48.5237 57.2277 48.9612 57.8097C49.4026 58.3917 49.6233 59.1886 49.6233 60.2003L49.6233 60.2941ZM48.5393 60.171C48.5393 59.4327 48.3967 58.8624 48.1116 58.4601C47.8264 58.0577 47.4163 57.8566 46.8811 57.8566C46.1663 57.8566 45.6526 58.1886 45.3401 58.8527L45.3401 61.5948C45.6721 62.2589 46.1897 62.5909 46.8928 62.5909C47.4124 62.5909 47.8167 62.3898 48.1057 61.9874C48.3948 61.5851 48.5393 60.9796 48.5393 60.171ZM50.7073 60.1652C50.7073 59.5441 50.8284 58.9855 51.0706 58.4894C51.3167 57.9933 51.6565 57.6105 52.0901 57.3409C52.5276 57.0714 53.0256 56.9366 53.5842 56.9366C54.4475 56.9366 55.1448 57.2355 55.676 57.8331C56.2112 58.4308 56.4788 59.2257 56.4788 60.2179L56.4788 60.2941C56.4788 60.9113 56.3596 61.4659 56.1214 61.9581C55.887 62.4464 55.5491 62.8273 55.1077 63.1007C54.6702 63.3741 54.1663 63.5109 53.596 63.5109C52.7366 63.5109 52.0393 63.212 51.5042 62.6144C50.9729 62.0167 50.7073 61.2257 50.7073 60.2413L50.7073 60.1652ZM51.7971 60.2941C51.7971 60.9972 51.9592 61.5616 52.2835 61.9874C52.6116 62.4132 53.0491 62.6261 53.596 62.6261C54.1467 62.6261 54.5842 62.4113 54.9085 61.9816C55.2327 61.548 55.3948 60.9425 55.3948 60.1652C55.3948 59.4698 55.2288 58.9073 54.8967 58.4777C54.5686 58.0441 54.1311 57.8273 53.5842 57.8273C53.0491 57.8273 52.6174 58.0402 52.2893 58.4659C51.9612 58.8917 51.7971 59.5011 51.7971 60.2941ZM61.7522 62.7667C61.3303 63.2628 60.7112 63.5109 59.8948 63.5109C59.219 63.5109 58.7034 63.3156 58.3479 62.9249C57.9964 62.5304 57.8186 61.9484 57.8147 61.1788L57.8147 57.0538L58.8987 57.0538L58.8987 61.1495C58.8987 62.1105 59.2893 62.5909 60.0706 62.5909C60.8987 62.5909 61.4495 62.2823 61.7229 61.6652L61.7229 57.0538L62.8069 57.0538L62.8069 63.3937L61.7756 63.3937L61.7522 62.7667ZM65.9299 55.5187L65.9299 57.0538L67.1135 57.0538L67.1135 57.8917L65.9299 57.8917L65.9299 61.8234C65.9299 62.0773 65.9827 62.2687 66.0881 62.3976C66.1936 62.5226 66.3733 62.5851 66.6272 62.5851C66.7522 62.5851 66.9241 62.5616 67.1428 62.5148L67.1428 63.3937C66.8577 63.4718 66.5803 63.5109 66.3108 63.5109C65.8264 63.5109 65.4612 63.3644 65.2151 63.0714C64.969 62.7784 64.846 62.3624 64.846 61.8234L64.846 57.8917L63.6917 57.8917L63.6917 57.0538L64.846 57.0538L64.846 55.5187L65.9299 55.5187ZM72.8323 55.5187L72.8323 57.0538L74.0159 57.0538L74.0159 57.8917L72.8323 57.8917L72.8323 61.8234C72.8323 62.0773 72.885 62.2687 72.9905 62.3976C73.096 62.5226 73.2756 62.5851 73.5296 62.5851C73.6546 62.5851 73.8264 62.5616 74.0452 62.5148L74.0452 63.3937C73.76 63.4718 73.4827 63.5109 73.2131 63.5109C72.7288 63.5109 72.3635 63.3644 72.1174 63.0714C71.8714 62.7784 71.7483 62.3624 71.7483 61.8234L71.7483 57.8917L70.594 57.8917L70.594 57.0538L71.7483 57.0538L71.7483 55.5187L72.8323 55.5187ZM74.8831 60.1652C74.8831 59.5441 75.0042 58.9855 75.2464 58.4894C75.4924 57.9933 75.8323 57.6105 76.2659 57.3409C76.7034 57.0714 77.2014 56.9366 77.76 56.9366C78.6233 56.9366 79.3206 57.2355 79.8518 57.8331C80.387 58.4308 80.6546 59.2257 80.6546 60.2179L80.6546 60.2941C80.6546 60.9113 80.5354 61.4659 80.2971 61.9581C80.0628 62.4464 79.7249 62.8273 79.2835 63.1007C78.846 63.3741 78.3421 63.5109 77.7717 63.5109C76.9124 63.5109 76.2151 63.212 75.6799 62.6144C75.1487 62.0167 74.8831 61.2257 74.8831 60.2413L74.8831 60.1652ZM75.9729 60.2941C75.9729 60.9972 76.135 61.5616 76.4592 61.9874C76.7874 62.4132 77.2249 62.6261 77.7717 62.6261C78.3225 62.6261 78.76 62.4113 79.0842 61.9816C79.4085 61.548 79.5706 60.9425 79.5706 60.1652C79.5706 59.4698 79.4046 58.9073 79.0725 58.4777C78.7444 58.0441 78.3069 57.8273 77.76 57.8273C77.2249 57.8273 76.7932 58.0402 76.4651 58.4659C76.137 58.8917 75.9729 59.5011 75.9729 60.2941ZM81.7503 60.171C81.7503 59.1984 81.9807 58.4171 82.4417 57.8273C82.9026 57.2335 83.5061 56.9366 84.2522 56.9366C84.9944 56.9366 85.5823 57.1906 86.0159 57.6984L86.0159 54.3937L87.0999 54.3937L87.0999 63.3937L86.1038 63.3937L86.051 62.714C85.6174 63.2452 85.0139 63.5109 84.2405 63.5109C83.5061 63.5109 82.9065 63.2101 82.4417 62.6085C81.9807 62.007 81.7503 61.2218 81.7503 60.2531L81.7503 60.171ZM82.8342 60.2941C82.8342 61.0128 82.9827 61.5753 83.2796 61.9816C83.5764 62.3878 83.9866 62.5909 84.51 62.5909C85.1975 62.5909 85.6995 62.2823 86.0159 61.6652L86.0159 58.7531C85.6917 58.1554 85.1936 57.8566 84.5217 57.8566C83.9905 57.8566 83.5764 58.0616 83.2796 58.4718C82.9827 58.882 82.8342 59.4894 82.8342 60.2941ZM92.7014 63.3937C92.6389 63.2687 92.5881 63.046 92.5491 62.7257C92.0452 63.2491 91.4436 63.5109 90.7444 63.5109C90.1194 63.5109 89.6057 63.3351 89.2034 62.9835C88.8049 62.6281 88.6057 62.1788 88.6057 61.6359C88.6057 60.9757 88.8557 60.464 89.3557 60.1007C89.8596 59.7335 90.5667 59.5499 91.4768 59.5499L92.5315 59.5499L92.5315 59.0519C92.5315 58.673 92.4182 58.3722 92.1917 58.1495C91.9651 57.923 91.6311 57.8097 91.1897 57.8097C90.803 57.8097 90.4788 57.9073 90.2171 58.1027C89.9553 58.298 89.8245 58.5343 89.8245 58.8116L88.7346 58.8116C88.7346 58.4952 88.846 58.1906 89.0686 57.8976C89.2952 57.6007 89.5999 57.3663 89.9827 57.1945C90.3694 57.0226 90.7932 56.9366 91.2542 56.9366C91.9846 56.9366 92.5569 57.1202 92.971 57.4874C93.385 57.8507 93.5999 58.3527 93.6155 58.9933L93.6155 61.9113C93.6155 62.4933 93.6897 62.9562 93.8381 63.2999L93.8381 63.3937L92.7014 63.3937ZM90.9026 62.5675C91.2424 62.5675 91.5647 62.4796 91.8694 62.3038C92.1741 62.1281 92.3948 61.8995 92.5315 61.6183L92.5315 60.3175L91.6819 60.3175C90.3538 60.3175 89.6897 60.7062 89.6897 61.4835C89.6897 61.8234 89.803 62.089 90.0296 62.2804C90.2561 62.4718 90.5471 62.5675 90.9026 62.5675ZM97.2952 61.8058L98.7717 57.0538L99.9319 57.0538L97.3831 64.3722C96.9885 65.4269 96.3616 65.9542 95.5022 65.9542L95.2971 65.9366L94.8928 65.8605L94.8928 64.9816L95.1858 65.005C95.553 65.005 95.8381 64.9308 96.0413 64.7823C96.2483 64.6339 96.4182 64.3624 96.551 63.9679L96.7913 63.3234L94.5296 57.0538L95.7131 57.0538L97.2952 61.8058ZM102.176 60.9913C102.184 60.5265 102.237 60.1593 102.334 59.8898C102.432 59.6202 102.631 59.3214 102.932 58.9933L103.699 58.2023C104.028 57.8312 104.192 57.4327 104.192 57.007C104.192 56.5968 104.084 56.2765 103.869 56.046C103.655 55.8116 103.342 55.6945 102.932 55.6945C102.533 55.6945 102.213 55.7999 101.971 56.0109C101.729 56.2218 101.608 56.505 101.608 56.8605L100.524 56.8605C100.532 56.2277 100.756 55.7179 101.198 55.3312C101.643 54.9406 102.221 54.7452 102.932 54.7452C103.67 54.7452 104.244 54.9445 104.655 55.3429C105.069 55.7374 105.276 56.2804 105.276 56.9718C105.276 57.6554 104.959 58.3292 104.326 58.9933L103.688 59.6261C103.403 59.9425 103.26 60.3976 103.26 60.9913L102.176 60.9913ZM102.129 62.8488C102.129 62.673 102.182 62.5265 102.287 62.4093C102.397 62.2882 102.557 62.2277 102.768 62.2277C102.979 62.2277 103.139 62.2882 103.248 62.4093C103.358 62.5265 103.412 62.673 103.412 62.8488C103.412 63.0245 103.358 63.171 103.248 63.2882C103.139 63.4015 102.979 63.4581 102.768 63.4581C102.557 63.4581 102.397 63.4015 102.287 63.2882C102.182 63.171 102.129 63.0245 102.129 62.8488ZM109.518 62.8253C109.518 62.6378 109.573 62.4816 109.682 62.3566C109.795 62.2316 109.963 62.1691 110.186 62.1691C110.408 62.1691 110.576 62.2316 110.69 62.3566C110.807 62.4816 110.865 62.6378 110.865 62.8253C110.865 63.005 110.807 63.1554 110.69 63.2765C110.576 63.3976 110.408 63.4581 110.186 63.4581C109.963 63.4581 109.795 63.3976 109.682 63.2765C109.573 63.1554 109.518 63.005 109.518 62.8253ZM109.524 57.6515C109.524 57.464 109.578 57.3077 109.688 57.1827C109.801 57.0577 109.969 56.9952 110.192 56.9952C110.414 56.9952 110.582 57.0577 110.696 57.1827C110.813 57.3077 110.871 57.464 110.871 57.6515C110.871 57.8312 110.813 57.9816 110.696 58.1027C110.582 58.2238 110.414 58.2843 110.192 58.2843C109.969 58.2843 109.801 58.2238 109.688 58.1027C109.578 57.9816 109.524 57.8312 109.524 57.6515ZM114.961 59.9894C114.961 60.8605 114.846 61.6964 114.615 62.4972C114.389 63.2941 114.039 64.0304 113.567 64.7062C113.098 65.382 112.606 65.8624 112.09 66.1476L111.862 65.4855C112.463 65.0245 112.946 64.3097 113.309 63.3409C113.676 62.3683 113.864 61.2902 113.871 60.1066L113.871 59.9191C113.871 59.0988 113.785 58.337 113.614 57.6339C113.442 56.9269 113.201 56.2941 112.893 55.7355C112.588 55.1769 112.244 54.7413 111.862 54.4288L112.09 53.7667C112.606 54.0519 113.096 54.5284 113.561 55.1964C114.03 55.8644 114.379 56.6007 114.61 57.4054C114.844 58.2101 114.961 59.0714 114.961 59.9894Z" fill="#26293F"/>
<path d="M151.447 30.8836C152.113 30.3068 152.113 29.2929 151.447 28.7161L146 24L146 35.5997L151.447 30.8836Z" fill="white"/>
<defs>
<filter id="filter0_d" x="-12" y="0.529541" width="197.324" height="148.47" filterUnits="userSpaceOnUse" color-interpolation-filters="sRGB">
<feFlood flood-opacity="0" result="BackgroundImageFix"/>
<feColorMatrix in="SourceAlpha" type="matrix" values="0 0 0 0 0 0 0 0 0 0 0 0 0 0 0 0 0 0 127 0"/>
<feOffset dy="33"/>
<feGaussianBlur stdDeviation="19.5"/>
<feColorMatrix type="matrix" values="0 0 0 0 0.396078 0 0 0 0 0.396078 0 0 0 0 0.396078 0 0 0 0.25 0"/>
<feBlend mode="normal" in2="BackgroundImageFix" result="effect1_dropShadow"/>
<feBlend mode="normal" in="SourceGraphic" in2="effect1_dropShadow" result="shape"/>
</filter>
</defs>
</svg>
