<?xml version="1.0" encoding="utf-8"?>
<!-- Generator: Adobe Illustrator 23.1.0, SVG Export Plug-In . SVG Version: 6.00 Build 0)  -->
<svg version="1.1" id="Layer_1" xmlns="http://www.w3.org/2000/svg" xmlns:xlink="http://www.w3.org/1999/xlink" x="0px" y="0px"
	 viewBox="0 0 176.5 252.9" style="enable-background:new 0 0 176.5 252.9;" xml:space="preserve">
<style type="text/css">
	.st0{fill:#121112;}
</style>
<g>
	<g>
		<path class="st0" d="M31.6,141.7c1.5,0.9,2.4,2.8,3,4.9c0.8,2.9,1,5.9,1.1,8.9c0.3,6.2,0.2,12.4-0.4,18.6
			c-0.4,3.7-0.9,7.9,1.3,11.1c3.2,4.7,9.2,5.4,14.4,5.3c5.5-0.1,10.7-1.4,15.5-4c6.5-3.4,12.8-7,19.2-10.6
			c11.2-6.2,22.4-12.5,32.9-19.6c3.7-2.5,7.5-5.2,10.8-8.3c2.2-2,4.5-4.3,5.7-7.1c1.1-2.6,1.1-5.5-0.8-7.7c-1.5-1.7-3.9-2.5-6.1-2.9
			c-6.9-1.1-14.1-0.1-21,0.4c-8.7,0.7-17.5,1.2-26.3,0.2c-1-0.1-1.4-0.2-2.6-0.4c-1.1-0.2-2.3-0.4-3.4-0.7c-2-0.5-3.9-1-5.7-1.8
			c-1.4-0.6-3.4-1.6-5.1-2.6c-0.4-0.3-0.8-0.6-1.2-0.8c-0.2-0.1-0.3-0.2-0.5-0.4c-0.4-0.3,0.4,0.4-0.2-0.2c-0.9-0.7-1.7-1.4-2.4-2.2
			c-6.6-6.8-7.9-16.7-7.8-25.7c0-1.2,0.1-2.3,0.2-3.5c0.1-0.8,0.1-1.6,0.2-2.3c0-0.2,0.2-1.2,0.1-0.6c0.1-0.5,0.2-1.1,0.2-1.6
			c0.7-4.1,1.8-8.3,3.4-12c4.3-9.7,12.1-17,22.2-20.2c9.7-3,20.9-2.6,30.2,1.7c4.3,2,8.2,4.7,11.2,8.4c3.2,4,5.4,9.6,5.8,14.8
			c0.2,2.5,0.1,4.9-0.7,7.2c-0.3,1-0.8,2-1.5,2.9c0,0-0.4,0.4-0.5,0.5c-0.2,0.2-1.1,0.9-0.4,0.4c-0.5,0.3-1,0.6-1.5,0.9
			c0.7-0.3-0.3,0.1-0.5,0.2c-0.4,0.1-0.8,0.2-1.3,0.3c-2,0.5-3.3,0.6-5.3,0.8c-6.6,0.7-13.3,1.5-19.9,2.3c-4.5,0.6-9.1,1.1-13.6,2.1
			c-2.6,0.6-4.9,1.6-6.7,3.6c-1.8,1.8-3,4.2-3.6,6.7c-1.6,6.3-0.5,13.2,0.4,19.6c1.3,9.4,3,18.7,3.9,28.1
			c1.3,12.8,1.7,25.7,0.9,38.5c-0.4,6.4-1.1,12.8-1.7,19.2c-0.3,3.7-0.7,7.5-0.2,11.2c0.4,3.1,1.4,5.9,3.6,8.2c2.1,2.3,5,3.8,8,4.7
			c7.5,2.3,16,1.2,23.4-0.7c9.2-2.3,18.1-6.4,25.9-11.9c7.9-5.5,15.1-12.5,19.6-21.1c1.4-2.6,2.6-5.3,3.2-8.2
			c0.5-2.3,0.7-4.7,0.8-7.1c0.2-7.8,0.3-15.6,1.1-23.4c1.2-11.7,3.4-23.2,6-34.6c0.9-3.8,1.7-7.6,2.3-11.5c0.9-6,1.3-12,1.6-18
			c0.6-13.1-0.5-26.1-4.6-38.5c-3.8-11.4-10.6-22-20.4-29.1c-11.4-8.3-25.4-9.4-39-7.6c-7.3,1-14.6,2.6-21.8,4
			c-7.4,1.5-14.8,2.6-22.3,3c-3.9,0.2-7.8,0.3-11.7,0.3c-2.7,0-5.4-0.2-8-1c-2.4-0.7-4.7-2.1-5.8-4.4c-1-2.1-0.9-4.6,0.1-6.7
			c1.1-2.1,3.2-3.4,5.5-3.7c1.1-0.1,2.3,0,3.4,0.4c0.5,0.1,0.9,0.3,1.3,0.6c0.3,0.2,0.6,0.4,0.9,0.6c-0.7-0.4-0.1-0.1,0,0.1
			c0.2,0.2,0.5,0.4,0.7,0.7c0.1,0.1,0.2,0.3,0.3,0.4c-0.4-0.4-0.1-0.2-0.1-0.1c0.2,0.3,0.4,0.7,0.6,1c0.1,0.2,0.2,0.4,0.3,0.6
			C48,22,48.4,22.9,48.4,23c0.9,2.6,1,5.3,1,8c-0.2,10.2-5.6,18.8-9.5,28.1c-2.2,5.4-4.3,10.8-5.5,16.5c-1,4.6-2.2,9-3.9,13.4
			c-0.2,0.7-0.5,1.3-0.8,1.9c-0.1,0.3-0.3,0.7-0.4,1c-0.1,0.2-0.1,0.3-0.2,0.5c0.3-0.7,0,0.1-0.1,0.2c-0.5,1.3-1.1,2.5-1.7,3.8
			c-1.8,3.7-3.7,7.4-5.5,11.1c-3,6-6,12-8.9,18.1c-1.9,4-3.8,8-5.3,12.1c-0.7,1.8-1.4,3.9-1.3,5.9c0.2,2.6,2.3,4.5,5,4.3
			c3.8-0.2,7.3-2.8,10.6-4.5c1.9-0.9,3.4-1.7,5.5-2.1c1-0.2,1.1-0.2,2.3-0.2C30.2,141.2,31.1,141.4,31.6,141.7
			c2.8,1.5,5.4-2.8,2.5-4.3c-4.3-2.3-9-0.8-13.2,1.1c-2,0.9-3.9,2-5.9,3c-0.4,0.2-0.7,0.4-1.1,0.6c-0.2,0.1-1.3,0.6-0.9,0.4
			c-0.4,0.2-0.8,0.3-1.1,0.4c-0.3,0.1-1.3,0.2-0.5,0.2c-0.3,0-1.1-0.2-0.4,0.1c-0.3-0.1-0.4-0.2,0.1,0.1c-0.2-0.1-0.4-0.3,0.1,0.1
			c-0.5-0.5,0.3,0.6,0,0c-0.1-0.1,0.3,0.8,0.1,0.2c-0.1-0.5,0.2,0.2,0,0.3c0,0,0-0.9,0-1c0-0.2-0.1,0.7,0,0.1c0-0.2,0.1-0.4,0.1-0.6
			c0.1-0.5,0.3-1,0.4-1.5c0.5-1.4,1-2.8,1.6-4.2c0.3-0.7-0.2,0.5,0.1-0.3c0.1-0.2,0.2-0.5,0.3-0.7c0.2-0.4,0.4-0.8,0.5-1.2
			c0.5-1.2,1.1-2.4,1.6-3.6c1.2-2.7,2.5-5.3,3.8-8c2.8-5.8,5.7-11.5,8.6-17.3c3.3-6.6,6.5-13.2,8.7-20.3c1.2-3.8,1.8-7.7,2.8-11.5
			c1.6-6.1,4-11.9,6.6-17.6c2.1-4.6,4.5-9.1,6-14c1.6-5,2.1-10.5,1.5-15.7c-0.5-4.2-1.8-8.2-5.3-10.8c-4.7-3.5-12.1-2.8-16.1,1.6
			c-4.1,4.5-4.3,11.7-0.3,16.4c4,4.8,10.8,5.5,16.7,5.6c7.6,0.1,15.2-0.4,22.8-1.4c7.5-1,14.9-2.6,22.3-4.1
			c13.2-2.6,27.8-4.9,40.5,1.1c22.9,10.8,29.8,39,29.4,62.1c-0.2,10.6-1,20.8-3.3,31c-2.5,11.1-4.8,22.2-6.2,33.5
			c-1.1,8.7-1.6,17.3-1.6,26.1c0,1.2,0,2.5-0.1,3.7c0,0.6-0.1,1.1-0.1,1.7c0,0.2-0.1,0.5-0.1,0.7c0,0.5,0.1-0.6,0-0.1
			c0,0.2-0.1,0.4-0.1,0.5c-0.2,1.1-0.4,2.2-0.8,3.2c-0.2,0.5-0.4,1.1-0.6,1.6c-0.1,0.2-0.5,1.2-0.2,0.5c-0.1,0.3-0.3,0.6-0.4,0.9
			c-3.9,8.4-10.4,15.4-17.9,20.7c-7.6,5.5-16.1,9.5-25.2,11.9c-4.1,1.1-7.7,1.7-11.7,1.8c-1.9,0.1-3.7,0-5.5-0.2
			c-0.1,0-0.8-0.1-0.2,0c-0.2,0-0.4-0.1-0.6-0.1c-0.3-0.1-0.7-0.1-1-0.2c-0.9-0.2-1.7-0.4-2.5-0.7c-0.3-0.1-0.6-0.2-0.9-0.3
			c-0.2-0.1-0.4-0.1-0.5-0.2c0.6,0.2,0,0-0.1-0.1c-0.7-0.3-1.3-0.7-1.9-1.1c-0.2-0.1-1.1-0.8-0.5-0.3c-0.3-0.2-0.5-0.4-0.8-0.7
			c-0.2-0.2-0.4-0.4-0.6-0.6c-0.2-0.2-0.9-1.1-0.4-0.5c-0.3-0.5-0.6-0.9-0.9-1.4c-0.1-0.1-0.1-0.3-0.2-0.4c-0.2-0.5,0.2,0.6,0,0
			c-0.1-0.3-0.3-0.7-0.4-1.1c-0.2-0.6-0.3-1.2-0.4-1.8c0.1,0.7,0-0.4-0.1-0.6c0-0.4-0.1-0.8-0.1-1.2c-0.2-4.4,0.4-8.8,0.8-13.1
			c0.6-6.8,1.3-13.5,1.6-20.3c0.5-12.6-0.1-25.1-1.6-37.6c-0.6-5.1-1.3-10.1-2.1-15.1c-0.6-4-1.4-8.7-1.8-12.1
			c-0.4-3.3-0.7-6.5-0.7-9.8c0-0.7,0-1.4,0.1-2.1c0-0.3,0.1-0.6,0.1-0.8c0-0.2,0.1-0.7,0,0c0-0.2,0.1-0.4,0.1-0.6
			c0.2-1.2,0.5-2.3,1-3.5c-0.3,0.8,0,0,0.1-0.2c0.1-0.3,0.3-0.5,0.4-0.7c0.1-0.2,0.3-0.5,0.4-0.7c0.4-0.7-0.2,0.2,0.2-0.3
			c0.4-0.4,0.7-0.8,1.2-1.2c0.2-0.2,0.7-0.5,0.2-0.2c0.2-0.2,0.5-0.4,0.8-0.5c0.2-0.1,0.4-0.2,0.6-0.3c0.4-0.2-0.6,0.2-0.1,0.1
			c0.1,0,0.2-0.1,0.2-0.1c0.7-0.2,1.3-0.4,2-0.6c1.7-0.4,3.5-0.7,5.3-1c6-0.9,12-1.6,17.9-2.3c5.2-0.6,10.5-0.8,15.5-1.9
			c3.5-0.8,6.4-2.6,8.3-5.7c2.8-4.8,2.7-10.9,1.5-16.2c-1.2-5.5-3.8-10.8-7.7-15c-3.4-3.7-7.7-6.5-12.3-8.4
			c-10.1-4.3-21.8-4.9-32.3-1.9C67,54.2,58,61.5,52.9,71.4c-3.7,7.1-5.5,15.2-5.9,23.2c-0.4,8.9,0.7,18.6,5.5,26.3
			c10.1,16,31.4,16.3,48.1,15.3c7.6-0.4,15.2-1.5,22.7-1.3c0.7,0,1.4,0,2.1,0.1c0.3,0,0.7,0.1,1,0.1c0.1,0,0.2,0,0.3,0
			c-0.8-0.1-0.1,0,0.1,0c0.6,0.1,1.1,0.2,1.7,0.4c0.2,0.1,0.4,0.1,0.6,0.2c0.2,0.1,0.5,0.3-0.1-0.1c0.1,0.1,0.3,0.1,0.4,0.2
			c0.2,0.1,0.4,0.2,0.6,0.3c0.5,0.3-0.4-0.4,0,0c0.1,0.1,0.3,0.3,0.4,0.4c0.3,0.2-0.3-0.5-0.1-0.2c0,0.1,0.1,0.2,0.2,0.3
			c0,0.1,0.1,0.1,0.1,0.2c0.2,0.3-0.1-0.6-0.1-0.2c0,0.2,0.1,0.5,0.2,0.6c-0.3-0.7-0.1-0.3,0,0.1c0,0.8,0.1-0.4,0,0.2
			c-0.1,0.2-0.1,0.5-0.2,0.7c-0.2,0.8,0.2-0.3-0.1,0.3c-0.3,0.6-0.6,1.1-0.9,1.6c-0.1,0.1-0.8,1-0.3,0.5c-0.2,0.2-0.4,0.5-0.6,0.7
			c-0.6,0.7-1.2,1.3-1.9,2c-3.1,3-6.2,5.3-9.7,7.7c-10.4,7.2-21.4,13.3-32.4,19.5c-6.6,3.7-13.2,7.3-19.8,10.9
			c-4.3,2.4-8.8,3.7-14,3.8c-2.4,0.1-4.8,0-7.1-0.8c-1.1-0.4-2-1-2.8-1.8c-0.1-0.1-0.5-0.6-0.1-0.1c-0.1-0.1-0.2-0.2-0.2-0.3
			c-0.1-0.2-0.2-0.3-0.3-0.5c-0.4-0.6,0,0.1-0.1-0.2c-0.1-0.4-0.2-0.7-0.3-1.1c0-0.1-0.1-0.8,0-0.1c0-0.1,0-0.3,0-0.4
			c-0.1-1,0-1.9,0-2.9c0.1-2.3,0.4-4.7,0.6-7c0.5-6.3,0.4-12.7-0.2-18.9c-0.5-5.1-1.5-11.2-6.3-14C31.3,135.7,28.8,140,31.6,141.7z"
			/>
	</g>
</g>
</svg>
