<svg width="86" height="120" viewBox="0 0 86 120" fill="none" xmlns="http://www.w3.org/2000/svg">
<path d="M53.644 15.5179C59.0199 16.1621 64.8749 18.4706 67.7492 22.7655C70.6235 27.0604 70.4638 33.3416 68.7605 38.6028C67.004 43.9177 63.7039 48.1589 61.5748 53.6885C59.3925 59.2719 58.4877 66.09 54.7618 69.5796C51.0891 73.0692 44.7551 73.2302 38.8469 72.5323C32.8855 71.7807 27.3498 70.1701 23.9433 66.5195C20.59 62.8151 19.3658 57.1244 16.2254 52.2927C13.085 47.461 8.18809 43.5419 7.70905 39.3544C7.23 35.1132 11.222 30.6573 14.6286 26.2551C17.9819 21.9065 20.6965 17.6653 24.582 16.1621C28.4144 14.6589 33.4177 15.84 38.3678 15.8937C43.3712 16.0011 48.2681 14.9274 53.644 15.5179Z" fill="#7898CE"/>
<path d="M13.2682 68.064C14.0546 68.541 14.5264 69.548 14.841 70.6609C15.2603 72.1979 15.3652 73.7879 15.4176 75.3778C15.5749 78.6638 15.5225 81.9497 15.2079 85.2356C14.9982 87.1966 14.7361 89.4226 15.8894 91.1185C17.567 93.6095 20.7124 93.9805 23.4384 93.9275C26.3218 93.8745 29.0478 93.1855 31.5641 91.8075C34.9717 90.0055 38.2744 88.0976 41.6295 86.1896C47.501 82.9037 53.3724 79.5648 58.8769 75.8018C60.8166 74.4769 62.8087 73.0459 64.5387 71.4029C65.692 70.3429 66.8977 69.124 67.5268 67.64C68.1035 66.262 68.1035 64.725 67.1074 63.5591C66.3211 62.6581 65.0629 62.2341 63.9096 62.0221C60.2924 61.4391 56.5178 61.9691 52.9006 62.2341C48.3397 62.6051 43.7264 62.8701 39.1132 62.3401C38.5889 62.2871 38.3792 62.2341 37.7501 62.1281C37.1735 62.0221 36.5444 61.9161 35.9677 61.7571C34.9193 61.4921 33.9232 61.2271 32.9796 60.8031C32.2456 60.4851 31.1972 59.9551 30.306 59.4251C30.0963 59.2661 29.8866 59.1072 29.6769 59.0012C29.572 58.9482 29.5196 58.8952 29.4148 58.7892C29.2051 58.6302 29.6245 59.0011 29.3099 58.6832C28.8381 58.3122 28.4187 57.9412 28.0517 57.5172C24.5918 53.9132 23.9103 48.6664 23.9627 43.8964C23.9627 43.2605 24.0151 42.6775 24.0675 42.0415C24.12 41.6175 24.12 41.1935 24.1724 40.8225C24.1724 40.7165 24.2772 40.1865 24.2248 40.5045C24.2772 40.2395 24.3297 39.9215 24.3297 39.6565C24.6966 37.4836 25.2733 35.2576 26.1121 33.2966C28.3663 28.2617 32.4553 24.3928 37.8026 22.6969C42.8877 21.1069 48.7591 21.3189 53.6345 23.5978C55.8888 24.6578 57.9333 26.0888 59.506 28.0498C61.1836 30.1697 62.3369 33.1376 62.5466 35.8936C62.6514 37.2186 62.599 38.4906 62.1796 39.7095C62.0223 40.2395 61.7602 40.7695 61.3933 41.2465C61.3933 41.2465 61.1836 41.4585 61.1311 41.5115C61.0263 41.6175 60.5545 41.9885 60.9214 41.7235C60.6593 41.8825 60.3972 42.0415 60.1351 42.2005C60.5021 42.0415 59.9778 42.2535 59.873 42.3065C59.6633 42.3595 59.4536 42.4125 59.1915 42.4655C58.143 42.7305 57.4615 42.7835 56.413 42.8895C52.953 43.2605 49.4406 43.6844 45.9807 44.1084C43.6216 44.4264 41.2101 44.6914 38.851 45.2214C37.488 45.5394 36.2823 46.0694 35.3386 47.1294C34.395 48.0834 33.7659 49.3553 33.4514 50.6803C32.6126 54.0192 33.1893 57.6762 33.6611 61.0681C34.3426 66.05 35.2338 70.9789 35.7056 75.9608C36.3871 82.7447 36.5968 89.5816 36.1774 96.3654C35.9677 99.7574 35.6008 103.149 35.2862 106.541C35.1289 108.502 34.9193 110.516 35.1814 112.477C35.3911 114.12 35.9153 115.604 37.0686 116.823C38.1695 118.042 39.6898 118.837 41.2625 119.314C45.1943 120.533 49.6503 119.95 53.5297 118.943C58.3527 117.724 63.0184 115.551 67.1074 112.636C71.2489 109.721 75.0234 106.011 77.3825 101.453C78.1164 100.075 78.7455 98.6444 79.0601 97.1074C79.3222 95.8884 79.427 94.6165 79.4795 93.3445C79.5843 89.2106 79.6367 85.0766 80.0561 80.9427C80.6852 74.7418 81.8385 68.647 83.2015 62.6051C83.6734 60.5911 84.0927 58.5772 84.4073 56.5102C84.8791 53.3303 85.0888 50.1503 85.2461 46.9704C85.5606 40.0275 84.9839 33.1377 82.8346 26.5658C80.8425 20.5239 77.2777 14.906 72.1401 11.1431C66.1638 6.74416 58.8245 6.16118 51.6949 7.11516C47.8679 7.64515 44.041 8.49313 40.2665 9.23512C36.3871 10.0301 32.5078 10.6131 28.576 10.8251C26.5315 10.9311 24.4869 10.9841 22.4424 10.9841C21.027 10.9841 19.6115 10.8781 18.2485 10.4541C16.9903 10.0831 15.7846 9.34111 15.2079 8.12214C14.6837 7.00916 14.7361 5.68419 15.2603 4.57121C15.7846 3.51123 16.8855 2.82224 18.0912 2.66324C18.6679 2.61024 19.297 2.66324 19.8736 2.87524C20.1357 2.92824 20.3454 3.03424 20.5551 3.19323C20.7124 3.29923 20.8697 3.40523 21.027 3.51123C20.66 3.29923 20.9745 3.45823 21.027 3.56423C21.1318 3.67022 21.2891 3.77622 21.3939 3.93522C21.4463 3.98822 21.4988 4.09422 21.5512 4.14721C21.3415 3.93522 21.4988 4.04122 21.4988 4.09422C21.6036 4.25321 21.7085 4.46521 21.8133 4.62421C21.8657 4.7302 21.9182 4.8362 21.9706 4.9422C21.8657 4.62421 22.0754 5.1012 22.0754 5.1542C22.5472 6.53217 22.5997 7.96314 22.5997 9.39411C22.4948 14.8 19.6639 19.3579 17.6194 24.2868C16.4661 27.1488 15.3652 30.0107 14.7361 33.0317C14.2119 35.4696 13.5828 37.8016 12.6916 40.1335C12.5867 40.5045 12.4295 40.8225 12.2722 41.1405C12.2198 41.2995 12.1149 41.5115 12.0625 41.6705C12.0101 41.7765 12.0101 41.8295 11.9576 41.9355C12.1149 41.5645 11.9576 41.9885 11.9052 42.0415C11.6431 42.7305 11.3286 43.3665 11.014 44.0554C10.0704 46.0164 9.07433 47.9774 8.13071 49.9383C6.55799 53.1183 4.98528 56.2982 3.46499 59.5311C2.46894 61.6511 1.47289 63.7711 0.686531 65.944C0.319565 66.898 -0.0474015 68.011 0.00502224 69.071C0.10987 70.4489 1.21077 71.4559 2.62621 71.3499C4.61831 71.2439 6.45315 69.8659 8.18313 68.965C9.17918 68.488 9.96554 68.064 11.0664 67.852C11.5907 67.746 11.6431 67.746 12.2722 67.746C12.5343 67.799 13.0061 67.905 13.2682 68.064C14.7361 68.859 16.0991 66.58 14.5788 65.785C12.3246 64.566 9.86069 65.361 7.65889 66.368C6.61042 66.845 5.61437 67.428 4.56589 67.958C4.3562 68.064 4.19892 68.17 3.98923 68.276C3.88438 68.329 3.30772 68.594 3.51741 68.488C3.30772 68.594 3.09802 68.647 2.94075 68.7C2.78348 68.753 2.25924 68.806 2.67863 68.806C2.52136 68.806 2.10197 68.7 2.46894 68.859C2.31167 68.806 2.25924 68.753 2.52136 68.912C2.41652 68.859 2.31167 68.753 2.57379 68.965C2.31167 68.7 2.73106 69.283 2.57379 68.965C2.52136 68.912 2.73106 69.389 2.62621 69.071C2.57379 68.806 2.73106 69.177 2.62621 69.23C2.62621 69.23 2.62621 68.753 2.62621 68.7C2.62621 68.594 2.57379 69.071 2.62621 68.753C2.62621 68.647 2.67863 68.541 2.67863 68.435C2.73106 68.17 2.83591 67.905 2.88833 67.64C3.15045 66.898 3.41257 66.156 3.72711 65.414C3.88438 65.043 3.62226 65.679 3.77953 65.255C3.83196 65.149 3.88438 64.99 3.93681 64.884C4.04165 64.672 4.1465 64.46 4.19892 64.248C4.46104 63.6121 4.77559 62.9761 5.0377 62.3401C5.66679 60.9091 6.3483 59.5311 7.02981 58.1002C8.49767 55.0262 10.018 52.0053 11.5383 48.9313C13.2682 45.4334 14.9458 41.9355 16.0991 38.1726C16.7282 36.1586 17.0427 34.0916 17.567 32.0777C18.4058 28.8447 19.6639 25.7708 21.027 22.7499C22.1279 20.3119 23.386 17.9269 24.1724 15.33C25.0112 12.68 25.2733 9.76511 24.9587 7.00916C24.8539 4.6772 24.1724 2.55725 22.3375 1.17927C19.8736 -0.675692 15.9943 -0.304699 13.8973 2.02726C11.7479 4.41221 11.6431 8.22814 13.7401 10.7191C15.837 13.263 19.4018 13.634 22.4948 13.687C26.479 13.74 30.4632 13.475 34.4474 12.945C38.3792 12.4151 42.2586 11.5671 46.1379 10.7721C53.0579 9.39411 60.7117 8.17514 67.3696 11.3551C79.3746 17.079 82.9918 32.0247 82.7822 44.2674C82.6773 49.8853 82.2579 55.2912 81.0522 60.6971C79.7416 66.58 78.5358 72.4629 77.8019 78.4518C77.2252 83.0627 76.9631 87.6206 76.9631 92.2845C76.9631 92.9205 76.9631 93.6095 76.9107 94.2455C76.9107 94.5635 76.8583 94.8285 76.8583 95.1464C76.8583 95.2524 76.8058 95.4114 76.8058 95.5174C76.8058 95.7824 76.8583 95.1995 76.8058 95.4644C76.8058 95.5704 76.7534 95.6764 76.7534 95.7294C76.6486 96.3124 76.5437 96.8954 76.334 97.4254C76.2292 97.6904 76.1243 98.0084 76.0195 98.2734C75.9671 98.3794 75.7574 98.9094 75.9146 98.5384C75.8622 98.6974 75.7574 98.8564 75.7049 99.0154C73.6604 103.467 70.2529 107.177 66.3211 109.986C62.3369 112.901 57.8809 115.021 53.1103 116.293C50.9609 116.876 49.0737 117.194 46.9767 117.247C45.9807 117.3 45.037 117.247 44.0934 117.141C44.041 117.141 43.674 117.088 43.9886 117.141C43.8837 117.141 43.7789 117.088 43.674 117.088C43.5168 117.035 43.3071 117.035 43.1498 116.982C42.678 116.876 42.2586 116.77 41.8392 116.611C41.6819 116.558 41.5247 116.505 41.3674 116.452C41.2625 116.399 41.1577 116.399 41.1053 116.346C41.4198 116.452 41.1053 116.346 41.0528 116.293C40.6859 116.134 40.3713 115.922 40.0568 115.71C39.9519 115.657 39.4801 115.286 39.7947 115.551C39.6374 115.445 39.5325 115.339 39.3753 115.18C39.2704 115.074 39.1656 114.968 39.0607 114.862C38.9559 114.756 38.5889 114.279 38.851 114.597C38.6938 114.332 38.5365 114.12 38.3792 113.855C38.3268 113.802 38.3268 113.696 38.2744 113.643C38.1695 113.378 38.3792 113.961 38.2744 113.643C38.222 113.484 38.1171 113.272 38.0647 113.06C37.9598 112.742 37.9074 112.424 37.855 112.106C37.9074 112.477 37.855 111.894 37.8026 111.788C37.8026 111.576 37.7501 111.364 37.7501 111.152C37.6453 108.82 37.9598 106.488 38.1695 104.209C38.4841 100.605 38.851 97.0544 39.0083 93.4505C39.2704 86.7726 38.9559 80.1477 38.1695 73.5229C37.855 70.8199 37.488 68.17 37.0686 65.52C36.7541 63.4001 36.3347 60.9091 36.125 59.1071C35.9153 57.3582 35.758 55.6622 35.758 53.9132C35.758 53.5423 35.758 53.1713 35.8105 52.8003C35.8105 52.6413 35.8629 52.4823 35.8629 52.3763C35.8629 52.2703 35.9153 52.0053 35.8629 52.3763C35.8629 52.2703 35.9153 52.1643 35.9153 52.0583C36.0202 51.4223 36.1774 50.8393 36.4395 50.2033C36.2823 50.6273 36.4395 50.2033 36.492 50.0973C36.5444 49.9383 36.6492 49.8323 36.7017 49.7263C36.7541 49.6203 36.8589 49.4613 36.9114 49.3553C37.1211 48.9843 36.8065 49.4613 37.0162 49.1963C37.2259 48.9843 37.3832 48.7724 37.6453 48.5604C37.7501 48.4544 38.0123 48.2954 37.7501 48.4544C37.855 48.3484 38.0123 48.2424 38.1695 48.1894C38.2744 48.1364 38.3792 48.0834 38.4841 48.0304C38.6938 47.9244 38.1695 48.1364 38.4316 48.0834C38.4841 48.0834 38.5365 48.0304 38.5365 48.0304C38.9035 47.9244 39.218 47.8184 39.585 47.7124C40.4762 47.5004 41.4198 47.3414 42.3634 47.1824C45.5089 46.7054 48.6543 46.3344 51.7473 45.9634C54.4733 45.6454 57.2518 45.5394 59.873 44.9564C61.7078 44.5324 63.2281 43.5784 64.2241 41.9355C65.692 39.3915 65.6396 36.1586 65.0105 33.3496C64.3814 30.4347 63.0184 27.6258 60.9739 25.3998C59.1915 23.4388 56.9372 21.9549 54.5257 20.9479C49.2309 18.6689 43.0974 18.3509 37.5929 19.9409C31.9835 21.6369 27.3178 25.4528 24.5918 30.7527C22.6521 34.5156 21.7085 38.8085 21.4988 43.0485C21.2891 47.7654 21.8657 52.9063 24.3821 56.9872C29.6769 65.467 40.8431 65.626 49.5979 65.096C53.5821 64.884 57.5663 64.301 61.4981 64.407C61.8651 64.407 62.232 64.407 62.599 64.46C62.7563 64.46 62.966 64.513 63.1232 64.513C63.1757 64.513 63.2281 64.513 63.2805 64.513C62.8611 64.46 63.2281 64.513 63.3329 64.513C63.6475 64.566 63.9096 64.619 64.2241 64.725C64.329 64.778 64.4338 64.778 64.5387 64.831C64.6435 64.884 64.8008 64.99 64.4863 64.778C64.5387 64.831 64.6435 64.831 64.696 64.884C64.8008 64.937 64.9056 64.99 65.0105 65.043C65.2726 65.202 64.8008 64.831 65.0105 65.043C65.0629 65.096 65.1678 65.202 65.2202 65.255C65.3775 65.361 65.0629 64.99 65.1678 65.149C65.1678 65.202 65.2202 65.255 65.2726 65.308C65.2726 65.361 65.325 65.361 65.325 65.414C65.4299 65.573 65.2726 65.096 65.2726 65.308C65.2726 65.414 65.325 65.573 65.3775 65.626C65.2202 65.255 65.325 65.467 65.3775 65.679C65.3775 66.103 65.4299 65.467 65.3775 65.785C65.325 65.891 65.325 66.05 65.2726 66.156C65.1678 66.58 65.3775 65.997 65.2202 66.315C65.0629 66.633 64.9056 66.898 64.7484 67.163C64.696 67.216 64.329 67.693 64.5911 67.428C64.4863 67.534 64.3814 67.693 64.2766 67.799C63.962 68.17 63.6475 68.488 63.2805 68.859C61.6554 70.4489 60.0302 71.6679 58.1954 72.9399C52.7433 76.7558 46.9767 79.9887 41.2101 83.2747C37.7501 85.2356 34.2902 87.1436 30.8302 89.0516C28.576 90.3235 26.2169 91.0125 23.4909 91.0655C22.2327 91.1185 20.9745 91.0655 19.7688 90.6415C19.1921 90.4295 18.7203 90.1115 18.3009 89.6876C18.2485 89.6346 18.0388 89.3696 18.2485 89.6346C18.1961 89.5816 18.1436 89.5286 18.1436 89.4756C18.0912 89.3696 18.0388 89.3166 17.9864 89.2106C17.7767 88.8926 17.9864 89.2636 17.934 89.1046C17.8815 88.8926 17.8291 88.7336 17.7767 88.5216C17.7767 88.4686 17.7243 88.0976 17.7767 88.4686C17.7767 88.4156 17.7767 88.3096 17.7767 88.2566C17.7243 87.7266 17.7767 87.2496 17.7767 86.7196C17.8291 85.5006 17.9864 84.2287 18.0912 83.0097C18.3533 79.6708 18.3009 76.2788 17.9864 72.9929C17.7243 70.2899 17.2 67.057 14.6837 65.573C13.1634 64.884 11.8004 67.163 13.2682 68.064Z" fill="#0A1931"/>
</svg>
